PathFileType	3	(X/Y/Z)	squats_2__view2_aligned.trc
DataRate	CameraRate	NumFrames	NumMarkers	Units	OrigDataRate	OrigDataStartFrame	OrigNumFrames
100.0	100.0	10	19	mm	100.0	698	1550
Frame#	Time	pelvis			neck			head			hip_left			hip_right			knee_left			knee_right			ankle_left			ankle_right			heel_left			heel_right			toe_left			toe_right			shoulder_left			shoulder_right			elbow_left			elbow_right			wrist_left			wrist_right			
		X1	Y1	Z1	X2	Y2	Z2	X3	Y3	Z3	X4	Y4	Z4	X5	Y5	Z5	X6	Y6	Z6	X7	Y7	Z7	X8	Y8	Z8	X9	Y9	Z9	X10	Y10	Z10	X11	Y11	Z11	X12	Y12	Z12	X13	Y13	Z13	X14	Y14	Z14	X15	Y15	Z15	X16	Y16	Z16	X17	Y17	Z17	X18	Y18	Z18	X19	Y19	Z19	
698	6.97000	42.501573	888.358459	28.162539	47.673819	1400.398596	-155.284552	36.700348	1511.885238	-281.264366	-31.685790	882.660190	28.023937	116.688959	894.056674	28.301141	-91.005739	516.263011	-141.517195	202.926304	520.453148	-118.624339	-102.272032	175.726745	28.889154	219.114750	171.564333	33.461130	-103.273129	138.032606	70.592993	212.729625	133.701171	74.306378	-80.048000	100.589090	-133.149910	261.354351	91.921402	-125.152808	-116.092320	1367.323022	-114.873054	212.358424	1332.319887	-121.454467	-223.731504	1110.628949	-93.605930	277.213055	1061.729815	-123.348520	-245.392869	966.938357	-290.767902	245.743107	928.191760	-323.532720
699	6.98000	41.686188	884.122172	29.897586	47.639491	1395.035004	-155.925409	37.201209	1506.208534	-282.149261	-32.499492	878.473021	29.599553	115.871913	889.771271	30.195624	-91.763470	514.707884	-144.833583	203.416053	518.422994	-120.292503	-102.917428	175.732050	28.382770	218.347986	170.475079	33.747449	-103.946797	138.223739	70.258885	211.773522	132.766048	74.700630	-80.564712	100.457394	-133.351947	261.221725	90.573859	-124.434224	-116.328458	1362.036347	-115.673201	212.260869	1326.795307	-121.816016	-224.156390	1105.606026	-94.454041	276.217342	1056.178320	-123.790968	-244.000756	963.328572	-291.603218	244.071047	923.617005	-324.025277
700	6.99000	40.870803	879.885885	31.632634	47.605164	1389.671411	-156.566267	37.702069	1500.531830	-283.034155	-33.313194	874.285852	31.175170	115.054867	885.485868	32.090107	-92.521201	513.152756	-148.149972	203.905802	516.392841	-121.960666	-103.562825	175.737355	27.876387	217.581221	169.385824	34.033769	-104.620465	138.414873	69.924776	210.817419	131.830924	75.094883	-81.081424	100.325699	-133.553983	261.089098	89.226316	-123.715641	-116.564595	1356.749672	-116.473348	212.163314	1321.270727	-122.177565	-224.581276	1100.583102	-95.302152	275.221629	1050.626824	-124.233415	-242.608644	959.718786	-292.438535	242.398986	919.042250	-324.517834
701	7.00000	40.055418	875.649597	33.367681	47.570836	1384.307819	-157.207125	38.202930	1494.855126	-283.919050	-34.126896	870.098683	32.750786	114.237821	881.200465	33.984590	-93.278932	511.597629	-151.466360	204.395551	514.362687	-123.628829	-104.208222	175.742660	27.370003	216.814457	168.296570	34.320088	-105.294133	138.606006	69.590668	209.861316	130.895801	75.489135	-81.598136	100.194003	-133.756019	260.956471	87.878774	-122.997057	-116.800733	1351.462997	-117.273495	212.065759	1315.746148	-122.539114	-225.006162	1095.560178	-96.150263	274.225916	1045.075328	-124.675863	-241.216531	956.109001	-293.273851	240.726926	914.467495	-325.010391
702	7.01000	39.240033	871.413310	35.102728	47.536509	1378.944227	-157.847983	38.703790	1489.178422	-284.803944	-34.940598	865.911514	34.326402	113.420775	876.915062	35.879073	-94.036663	510.042501	-154.782749	204.885300	512.332533	-125.296992	-104.853618	175.747965	26.863620	216.047693	167.207316	34.606408	-105.967801	138.797139	69.256560	208.905214	129.960678	75.883387	-82.114848	100.062308	-133.958056	260.823844	86.531231	-122.278473	-117.036871	1346.176322	-118.073642	211.968204	1310.221568	-122.900663	-225.431048	1090.537255	-96.998374	273.230203	1039.523833	-125.118310	-239.824419	952.499216	-294.109168	239.054866	909.892741	-325.502948
703	7.02000	38.424648	867.177023	36.837775	47.502181	1373.580634	-158.488841	39.204651	1483.501718	-285.688839	-35.754299	861.724345	35.902019	112.603729	872.629660	37.773556	-94.794394	508.487373	-158.099138	205.375049	510.302380	-126.965156	-105.499015	175.753270	26.357236	215.280929	166.118062	34.892727	-106.641469	138.988273	68.922451	207.949111	129.025554	76.277640	-82.631560	99.930613	-134.160092	260.691217	85.183688	-121.559889	-117.273009	1340.889647	-118.873789	211.870649	1304.696989	-123.262212	-225.855934	1085.514331	-97.846485	272.234490	1033.972337	-125.560758	-238.432306	948.889430	-294.944485	237.382805	905.317986	-325.995505
704	7.03000	37.609263	862.940735	38.572823	47.467854	1368.217042	-159.129699	39.705511	1477.825014	-286.573734	-36.568001	857.537176	37.477635	111.786683	868.344257	39.668039	-95.552125	506.932246	-161.415526	205.864798	508.272226	-128.633319	-106.144411	175.758574	25.850853	214.514165	165.028808	35.179047	-107.315137	139.179406	68.588343	206.993008	128.090431	76.671892	-83.148272	99.798917	-134.362128	260.558590	83.836145	-120.841305	-117.509146	1335.602972	-119.673936	211.773094	1299.172409	-123.623761	-226.280820	1080.491408	-98.694596	271.238777	1028.420841	-126.003205	-237.040194	945.279645	-295.779801	235.710745	900.743231	-326.488062
705	7.04000	36.793878	858.704448	40.307870	47.433526	1362.853449	-159.770556	40.206372	1472.148310	-287.458628	-37.381703	853.350007	39.053252	110.969638	864.058854	41.562522	-96.309856	505.377118	-164.731915	206.354547	506.242072	-130.301482	-106.789808	175.763879	25.344469	213.747401	163.939553	35.465366	-107.988804	139.370539	68.254235	206.036906	127.155308	77.066144	-83.664984	99.667222	-134.564164	260.425963	82.488602	-120.122721	-117.745284	1330.316297	-120.474083	211.675539	1293.647829	-123.985310	-226.705707	1075.468484	-99.542707	270.243064	1022.869346	-126.445653	-235.648082	941.669860	-296.615118	234.038685	896.168476	-326.980619
706	7.05000	35.978493	854.468161	42.042917	47.399199	1357.489857	-160.411414	40.707232	1466.471606	-288.343523	-38.195405	849.162838	40.628868	110.152592	859.773451	43.457005	-97.067587	503.821991	-168.048303	206.844297	504.211919	-131.969645	-107.435204	175.769184	24.838086	212.980636	162.850299	35.751686	-108.662472	139.561673	67.920126	205.080803	126.220184	77.460397	-84.181696	99.535527	-134.766201	260.293336	81.141059	-119.404137	-117.981422	1325.029622	-121.274230	211.577984	1288.123250	-124.346859	-227.130593	1070.445561	-100.390818	269.247351	1017.317850	-126.888100	-234.255969	938.060074	-297.450434	232.366624	891.593722	-327.473176
707	7.06000	35.163108	850.231873	43.777965	47.364871	1352.126265	-161.052272	41.208093	1460.794902	-289.228418	-39.009107	844.975669	42.204485	109.335546	855.488048	45.351488	-97.825318	502.266863	-171.364692	207.334046	502.181765	-133.637809	-108.080601	175.774489	24.331702	212.213872	161.761045	36.038005	-109.336140	139.752806	67.586018	204.124700	125.285061	77.854649	-84.698408	99.403831	-134.968237	260.160709	79.793516	-118.685553	-118.217560	1319.742947	-122.074377	211.480429	1282.598670	-124.708408	-227.555479	1065.422637	-101.238929	268.251638	1011.766355	-127.330548	-232.863857	934.450289	-298.285751	230.694564	887.018967	-327.965733
